<svg xmlns="http://www.w3.org/2000/svg" xmlns:xlink="http://www.w3.org/1999/xlink" width="106.0048828125" height="33.002197265625" viewBox="0 0 106.0048828125 33.002197265625" fill="none"><g opacity="1"  transform="translate(0.0029296875 0.001983642578125)  rotate(0)"><path id="路径 1" fill-rule="evenodd" style="fill:#00A0FF" opacity="1" d="M26.65 2.07C26.13 1.81 25.48 1.93 25.13 2.37L20.64 7.84L20.32 8.23C19.84 8.83 19.06 9.15 18.25 9.11C17.96 9.1 17.67 9.1 17.37 9.12C15.12 9.25 12.94 10.25 11.47 12.04C10.3 13.48 9.78 15.18 9.88 16.85C9.89 17.15 10.08 17.42 10.38 17.55C11 17.81 11.47 18.33 11.59 19.01C11.76 19.96 11.12 20.89 10.12 21.17C8.93 21.5 7.72 20.83 7.45 19.74C7.3 19.15 7.47 18.56 7.85 18.12C8.06 17.87 8.16 17.57 8.13 17.26C7.92 15.12 8.54 12.91 10.06 11.06C11.97 8.73 14.88 7.49 17.82 7.48C18.39 7.48 18.93 7.23 19.27 6.81L23.4 1.77C23.72 1.37 23.51 0.8 23 0.66C16.08 -1.2 8.34 0.9 3.7 6.45C-2.31 13.64 -0.85 24.01 6.96 29.56C7.69 30.07 8.45 30.53 9.23 30.93C9.75 31.19 10.4 31.07 10.75 30.63L15.23 25.16L15.55 24.77C16.04 24.17 16.82 23.85 17.62 23.89C17.92 23.9 18.21 23.9 18.5 23.88C20.76 23.75 22.94 22.75 24.4 20.96C25.58 19.52 26.1 17.82 26 16.15C25.98 15.85 25.79 15.58 25.5 15.45C24.88 15.19 24.4 14.67 24.29 13.99C24.12 13.04 24.75 12.11 25.76 11.83C26.94 11.5 28.16 12.17 28.43 13.26C28.57 13.85 28.41 14.44 28.03 14.88C27.82 15.13 27.72 15.43 27.75 15.74C27.95 17.88 27.33 20.09 25.82 21.94C23.91 24.27 21 25.51 18.05 25.52C17.48 25.53 16.95 25.77 16.61 26.19L12.48 31.23C12.16 31.63 12.36 32.19 12.87 32.33C19.84 34.22 27.65 32.07 32.28 26.42C38.24 19.14 36.65 8.8 28.73 3.32C28.06 2.85 27.36 2.44 26.65 2.07Z"></path><g opacity="1"  transform="translate(40.291961669921875 6.085357666015625)  rotate(0)"><path id="路径 2" fill-rule="evenodd" style="fill:#00A0FF" opacity="1" d="M18.07 1.34395C18.07 1.06395 17.82 0.833954 17.51 0.833954L3.53 0.833954C3.22 0.833954 2.97 1.06395 2.97 1.34395L2.97 2.13395C2.97 2.41395 3.22 2.64395 3.53 2.64395L15.39 2.64395C15.73 2.64395 16 2.92395 15.95 3.23395C15.61 5.25395 14.57 9.05395 11.31 12.694C11.08 12.944 10.65 12.944 10.43 12.684C7.7 9.47395 6.86 6.18395 6.63 4.97395C6.58 4.71395 6.32 4.53395 6.02 4.55395L5.58 4.60395L5.18 4.64395C4.86 4.67395 4.63 4.94395 4.69 5.24395C4.97 6.62395 5.99 10.444 9.19 14.084C9.38 14.294 9.36 14.604 9.14 14.784C5.25 18.074 1.74 18.794 0.49 18.944C0.21 18.984 0 19.204 0 19.464L0 20.254C0.01 20.554 0.29 20.794 0.62 20.764C2.11 20.594 6.09 19.824 10.49 16.104C10.71 15.924 11.04 15.924 11.25 16.104C13.38 17.914 16.09 19.664 19.75 20.734C20.05 20.814 20.37 20.654 20.46 20.384L20.7 19.634C20.78 19.364 20.62 19.084 20.32 18.994C16.99 18.024 14.54 16.454 12.61 14.834C12.39 14.654 12.38 14.334 12.57 14.124C18 8.28395 18.07 2.02395 18.07 1.73395L18.07 1.34395Z"></path><path id="路径 3" fill-rule="evenodd" style="fill:#00A0FF" opacity="1" d="M26.9196 0.0134583C26.6196 0.0134583 26.3696 0.243458 26.3696 0.523458L26.3696 3.27346C26.3696 3.56346 26.1196 3.78346 25.8096 3.78346L23.7996 3.78346C23.4896 3.78346 23.2396 4.01346 23.2396 4.30346L23.2396 5.08346C23.2396 5.37346 23.4896 5.59346 23.7996 5.59346L25.8096 5.59346C26.1196 5.59346 26.3696 5.82346 26.3696 6.11346L26.3696 10.0935C26.3696 10.3735 26.1196 10.6035 25.8096 10.6035L23.7996 10.6035C23.4896 10.6035 23.2396 10.8335 23.2396 11.1235L23.2396 11.9035C23.2396 12.1835 23.4896 12.4135 23.7996 12.4135L25.8096 12.4135C26.1196 12.4135 26.3696 12.6435 26.3696 12.9335L26.3696 16.6935C26.3696 17.5135 26.0096 18.8435 23.7396 19.0235C23.4496 19.0435 23.2196 19.2635 23.2196 19.5335L23.2196 20.3135C23.2196 20.6135 23.4996 20.8535 23.8196 20.8235C26.0196 20.6535 28.3296 19.5035 28.3296 16.6935L28.3296 12.9335C28.3296 12.6435 28.5796 12.4135 28.8896 12.4135L30.6796 12.4135C30.9796 12.4135 31.2296 12.1835 31.2296 11.9035L31.2296 11.1235C31.2296 10.8335 30.9796 10.6035 30.6796 10.6035L28.8896 10.6035C28.5796 10.6035 28.3296 10.3735 28.3296 10.0935L28.3296 6.11346C28.3296 5.82346 28.5796 5.59346 28.8896 5.59346L30.6796 5.59346C30.9796 5.59346 31.2296 5.37346 31.2296 5.08346L31.2296 4.30346C31.2296 4.01346 30.9796 3.78346 30.6796 3.78346L28.8896 3.78346C28.5796 3.78346 28.3296 3.56346 28.3296 3.27346L28.3296 0.523458C28.3296 0.243458 28.0796 0.0134583 27.7796 0.0134583L26.9196 0.0134583Z"></path><path id="路径 4" fill-rule="evenodd" style="fill:#00A0FF" opacity="1" d="M32.2185,20.1939v-16.07004c0,-0.28 0.25,-0.51 0.56,-0.51h10.78c0.31,0 0.56,0.23 0.56,0.51v12.16004c0,2.43 -2.27,4.42 -5.05,4.42h-6.29c-0.31,0 -0.56,-0.23 -0.56,-0.51zM42.1485,16.2839v-3.35c0,-0.29 -0.25,-0.52 -0.56,-0.52h-6.84c-0.31,0 -0.56,0.23 -0.56,0.52v5.45c0,0.28 0.25,0.51 0.56,0.51h4.32c1.7,0 3.08,-1.17 3.08,-2.61zM41.5885,5.42386h-6.84c-0.31,0 -0.56,0.23 -0.56,0.51v4.16004c0,0.28 0.25,0.51 0.56,0.51h6.84c0.31,0 0.56,-0.23 0.56,-0.51v-4.16004c0,-0.28 -0.25,-0.51 -0.56,-0.51z"></path><path id="路径 5" fill-rule="evenodd" style="fill:#00A0FF" opacity="1" d="M35.2337 0C34.9237 0 34.6737 0.23 34.6737 0.51L34.6737 1.3C34.6737 1.58 34.9237 1.81 35.2337 1.81L40.7937 1.81C41.0937 1.81 41.3437 1.58 41.3437 1.3L41.3437 0.51C41.3437 0.23 41.0937 0 40.7937 0L35.2337 0Z"></path><path id="路径 6" fill-rule="evenodd" style="fill:#00A0FF" opacity="1" d="M50.4595 0.796173C50.1495 0.796173 49.8995 1.02617 49.8995 1.30617L49.8995 2.09617C49.8995 2.37617 50.1495 2.60617 50.4595 2.60617L62.0295 2.60617C62.3395 2.60617 62.5895 2.37617 62.5895 2.09617L62.5895 1.30617C62.5895 1.02617 62.3395 0.796173 62.0295 0.796173L50.4595 0.796173Z"></path><path id="路径 7" fill-rule="evenodd" style="fill:#00A0FF" opacity="1" d="M65.15 9.87085C65.46 9.87085 65.71 9.64085 65.71 9.36085L65.71 8.57085C65.71 8.29085 65.46 8.06085 65.15 8.06085L47.34 8.06085C47.03 8.06085 46.78 8.29085 46.78 8.57085L46.78 9.36085C46.78 9.64085 47.03 9.87085 47.34 9.87085L52.85 9.87085C53.3 9.87085 53.56 10.3309 53.32 10.6709L49.65 16.7509C49.55 16.8909 49.48 17.0209 49.42 17.1609C49.12 17.9809 49.26 18.8709 49.82 19.5909C50.4 20.3409 51.37 20.7909 52.4 20.7909L62.46 20.7909C62.91 20.7909 63.32 20.5809 63.56 20.2309C63.8 19.8909 63.83 19.4709 63.64 19.1109L61.3 14.9509C61.16 14.7009 60.83 14.6009 60.55 14.7309L59.79 15.0909C59.52 15.2209 59.41 15.5309 59.55 15.7809L60.93 18.2309C61.12 18.5709 60.85 18.9809 60.43 18.9809L52.4 18.9809C52 18.9809 51.64 18.8109 51.42 18.5309C51.32 18.4009 51.18 18.1509 51.26 17.8309C51.27 17.7809 51.3 17.7309 51.34 17.6809L55.79 10.5109C56.08 10.1109 56.57 9.87085 57.09 9.87085L65.15 9.87085Z"></path></g></g></svg>